PathFileType	4	(X/Y/Z)	6_2_73_p1_0-406.trc
DataRate	CameraRate	NumFrames	NumMarkers	Units	OrigDataRate	OrigDataStartFrame	OrigNumFrames
59.0	59.0	6	27	m	59.0	0	407
Frame#	Time	RHip			RKnee			RAnkle			RBigToe			RSmallToe			RHeel			LHip			LKnee			LAnkle			LBigToe			LSmallToe			LHeel			Neck			Head			Nose			RShoulder			RElbow			RWrist			RThumb			RIndex			RPinky			LShoulder			LElbow			LWrist			LThumb			LIndex			LPinky			
		X1	Y1	Z1	X2	Y2	Z2	X3	Y3	Z3	X4	Y4	Z4	X5	Y5	Z5	X6	Y6	Z6	X7	Y7	Z7	X8	Y8	Z8	X9	Y9	Z9	X10	Y10	Z10	X11	Y11	Z11	X12	Y12	Z12	X13	Y13	Z13	X14	Y14	Z14	X15	Y15	Z15	X16	Y16	Z16	X17	Y17	Z17	X18	Y18	Z18	X19	Y19	Z19	X20	Y20	Z20	X21	Y21	Z21	X22	Y22	Z22	X23	Y23	Z23	X24	Y24	Z24	X25	Y25	Z25	X26	Y26	Z26	X27	Y27	Z27	
0	0.0	0.24867893400254354	0.43316833760998497	0.7410760562980727	0.29090391779785696	0.4536162678261144	1.1350294679145077	0.28123916329379334	0.5668289520813036	1.5133845556072156	0.2690227995198583	0.3699489017574236	1.5132056409728194	0.3297509299665791	0.43241404219642793	1.5385818958272697	0.25975179461045605	0.597094746494289	1.5754002341404418	0.0458954583282468	0.45778138648540256	0.7643121181244583	0.05541162197059498	0.4473436297074363	1.1376007805240718	0.08894357363876061	0.5057384542204856	1.5062722084183837	0.09447802902304518	0.39602732465281887	1.5610729157628997	0.04412647984855182	0.3746764052479665	1.5095463727085208	0.11688300810358322	0.5721780431595355	1.569143112641516	0.09974334402450265	0.42997554563239826	0.21088639408026855	0.11754236408197748	0.34083845974774524	-0.04130591701940389	0.09727339963328611	0.2517233015628167	0.08792754653839671	0.2549810117992135	0.3740403879634524	0.2561632916913578	0.3041471651012367	0.3810658044008126	0.5043501722127398	0.17877342776087313	0.31853062815604	0.6371129751937028	0.10235415878091253	0.32695876656102296	0.7105304979809884	0.09676899059979818	0.33800724674495924	0.7358449990004288	0.1040879606804727	0.33856789758011413	0.7429113305038524	-0.03719164458903734	0.47620573629757085	0.27494589459634217	-0.08508150739511151	0.4094753157755072	0.5061108250548974	0.05393996188725828	0.34367930983956063	0.6425545652446739	0.11472435796757675	0.3127051635428382	0.6636861822586879	0.1433068088963132	0.30363564708843044	0.7095897004047284	0.11028253746218426	0.3245969927463813	0.7295520430633485
1	0.01694915254237288	0.24513643375572006	0.42030554367793505	0.7373396606738635	0.29220362014643403	0.4548675438282734	1.1404989837161208	0.27380942013792947	0.5823823339757833	1.5281582428928242	0.2689926025803257	0.3701343074254745	1.5134554910692322	0.3296739394662887	0.43256642495820286	1.53861342648103	0.25982393568135104	0.5979517069328982	1.575822678566252	0.03938444070996273	0.4428640095666445	0.7607131283240528	0.05487922115172855	0.44832747164040776	1.134376791384435	0.08744097999735877	0.508043998694075	1.5080753744285487	0.09440926601337155	0.3960306471912624	1.5609634236112635	0.04666877181197672	0.3881857377974341	1.5170762780212976	0.11622239032903937	0.5743735457136099	1.565680359279574	0.09969925483707053	0.42993876507786716	0.21089971117602901	0.11751343568160783	0.3406490298015577	-0.04129103237692698	0.0971532563386114	0.2515650635217521	0.08782026361304399	0.2508116763551172	0.3870504481746711	0.25887033119093245	0.3032281390486175	0.38021063037243785	0.5003641230225128	0.17881733860533106	0.318619414422693	0.6371501703132103	0.10242453130744246	0.3264638332627881	0.7105575510987933	0.10145905566113256	0.3259348846235872	0.7313776584794643	0.10404545951834876	0.33865074764071285	0.7429039317976835	-0.03163192588557868	0.4630119717196316	0.27218505068695326	-0.08501363350946191	0.4092879309926494	0.5059943885230518	0.05443473253087675	0.32945942701004277	0.6381276225572144	0.11449186506105773	0.31266072209390133	0.663398870312841	0.1309174580449708	0.3022401599221108	0.706615062208565	0.11014178826099491	0.32519241224684414	0.7294086100404149
2	0.03389830508474576	0.24515751061149502	0.4203512585932534	0.7373541383853142	0.2956739938690471	0.45768916776081897	1.1375443656463475	0.27668874268839516	0.5826758015547161	1.5230025551861233	0.2696728966743409	0.3682837788653865	1.5167695498522904	0.33410062563005677	0.43517941136173216	1.5396996380335917	0.25990478825901736	0.5986650815896919	1.5761992016430253	0.03904935894795904	0.4427546422572717	0.7647982807633166	0.05479301359939989	0.4483861690482894	1.1341372182522909	0.08737688116984973	0.5081092231683818	1.507663423463574	0.09531142368157455	0.39565907877076667	1.5567304629203613	0.051813681541968803	0.3749018304857709	1.5082785185996819	0.11620133564924535	0.5745059483372541	1.5656356922635426	0.0991426912974112	0.4289340723803909	0.20675024793398522	0.11744674393664967	0.34069100475681174	-0.041319426921466514	0.0971287460634075	0.2515901076658533	0.08783389384778072	0.25083484584961124	0.38712644896800413	0.25877811420470537	0.3040686623020827	0.3812302709365878	0.5043868574504563	0.1788187899699509	0.31868138334463675	0.6371626301545502	0.09889495679937238	0.3264113492326851	0.7052618123613107	0.10149475191616057	0.32567136026199245	0.731472247881818	0.10394758476855888	0.3386912671297623	0.7428969882276305	-0.031588267109270325	0.4629202743995624	0.27207283574165786	-0.0850527927934291	0.4093575164832775	0.506010759956449	0.054452926402604955	0.32944404623748524	0.6381208515663814	0.11396978547470678	0.31330052911151807	0.6599462577529587	0.13082681162655463	0.30178208374556714	0.706423271489926	0.11020112846879403	0.3248168210151192	0.7294255480972874
3	0.05084745762711865	0.2487159747960701	0.43304422119638947	0.7410465903268834	0.28997936129625723	0.45480996702652504	1.1368594417199662	0.27663730918173546	0.5825931116154228	1.522857484004011	0.26902185198426265	0.3698337248239015	1.51320339093213	0.32972538004932106	0.43229746190149454	1.5383410997544118	0.25817621881652303	0.5957887279067425	1.570035949989196	0.03905176423760874	0.44264322515442694	0.7647639489650833	0.05481190297276631	0.4484473672734645	1.1341798072408107	0.08742519723068388	0.5079843821757031	1.5077704825298994	0.09455731498384999	0.39762530420915154	1.5532476013424592	0.05289344960082041	0.37666556340647567	1.5139775538998483	0.11623020904551186	0.5743325465590097	1.5655855640125937	0.09915129269415707	0.42894110263712976	0.20677887596612524	0.11746141877768605	0.3407989816683297	-0.04130165193967961	0.09710764823714443	0.2517261718009948	0.08786609144498847	0.25018865920449485	0.38615405593282437	0.25503409211436434	0.3040872955509383	0.38109496563301903	0.5042448639691937	0.1788216741113072	0.3185259215682617	0.6371131787188201	0.09885464569492945	0.32660271678197783	0.7053072405990468	0.10147859849540428	0.3258326296183568	0.7313353010038088	0.10397947892486883	0.33859059704548694	0.7429111374503147	-0.03166234028143158	0.46284232792707797	0.27210503120873875	-0.0850701809769742	0.40934308305730605	0.5059958638523124	0.05438530483525426	0.3297080540746224	0.6382764180410428	0.11397989623556054	0.3136736187126824	0.6598935782152343	0.13157689638150122	0.3032377148630436	0.7106881230217065	0.11025767785496234	0.3248445085314374	0.7294348141901783
4	0.06779661016949153	0.24519440554138192	0.4203537695820072	0.7373683020838622	0.29119267103003693	0.45615483131884593	1.1420801046164892	0.27699532974260493	0.5651126821668969	1.512861733984936	0.26906135125077957	0.369835197320218	1.51331993455174	0.3297498320121064	0.4323990795600613	1.5383955798119988	0.2599663631723562	0.5987062969909899	1.5761694440305543	0.03902729948597794	0.4427248105199154	0.7647718843801976	0.05482438116904463	0.44849040661001205	1.1342865816791978	0.08742049690352915	0.5081299194816186	1.5077273729695917	0.0945667199730769	0.39771894231479304	1.553265385518103	0.05291720286667128	0.37668178094574734	1.513932317864605	0.1162219204918997	0.5743615415660085	1.5657368838133043	0.0991554108538466	0.42890880564705125	0.20678575650569045	0.11749159355674584	0.34073516990032304	-0.041351186689150846	0.09716521227970472	0.25166929501067353	0.08787277200434247	0.25084789397598556	0.38708473053201325	0.25880708528607477	0.30405608197787637	0.38115975932985996	0.5043171660108404	0.17887216926764987	0.3185477318119083	0.6371277440097642	0.09999196429575019	0.3276311428482539	0.7106129246011165	0.10151676620686027	0.3259109074452241	0.7314465362378785	0.104007580217515	0.3388687791953069	0.742817676237121	-0.03165702672029	0.4628781916277743	0.27214487722149955	-0.08505762663386061	0.409304411683132	0.5060068876157618	0.04951241084988411	0.342096456292405	0.642510754273834	0.11478623957343936	0.3149701583577937	0.6642283164011591	0.13152315819059207	0.30341471941410697	0.7106841802933965	0.11033036233662892	0.3250339411424713	0.7294039039556762
5	0.0847457627118644	0.2447645485594013	0.4205241286421104	0.7413137851670861	0.28991945886575826	0.4546375196741346	1.1369188345401608	0.2760235721997935	0.5841483312431289	1.519368960929399	0.26969029720294924	0.368034039739075	1.516631087520371	0.33407260347012324	0.43490302152427374	1.5395087183192042	0.2584046558195015	0.5961854771307049	1.5703166667334612	0.038963768704323866	0.44272604880687316	0.7647985527326677	0.054785507088079596	0.448471636981338	1.134401506883187	0.08735334201689361	0.5081161268832747	1.5077422619053138	0.09639297578351867	0.41275926678653796	1.5659190042750637	0.05290121936319079	0.3766666741048898	1.5140765449368336	0.11613602100612888	0.5744500662132217	1.5655441214976764	0.09915502584191889	0.42888879339338826	0.20676356281972577	0.11750578081636841	0.3407998388948487	-0.04133605307915103	0.09710648153081085	0.25175150429412346	0.08782247733272906	0.250837006720537	0.38714896662713905	0.2588675916969889	0.3040979879333924	0.3812240397289737	0.5043372322912381	0.1788633949175333	0.31851373987565323	0.6370991511495705	0.09989352970845804	0.32762886145448256	0.7105113939616458	0.1014161210701837	0.32589152662803395	0.7314427089931211	0.10399870161724444	0.33889833285423115	0.742926471419194	-0.03388361960371228	0.4505286415626906	0.270409755911883	-0.08504962132757195	0.40928665402757	0.5060452650419027	0.04945623057526252	0.342313266553212	0.6425531018151664	0.1138733772335315	0.31374563377710524	0.6598952125816074	0.13147791969538813	0.3034112217004477	0.7106549894953433	0.11022284874972167	0.3252782039711261	0.7293845679864817
